<?xml version="1.0" encoding="utf-8"?>
<!-- Generator: Adobe Illustrator 28.0.0, SVG Export Plug-In . SVG Version: 6.00 Build 0)  -->
<svg version="1.1" id="Слой_1" xmlns="http://www.w3.org/2000/svg" xmlns:xlink="http://www.w3.org/1999/xlink" x="0px" y="0px"
	 viewBox="0 0 1000 1000" style="enable-background:new 0 0 1000 1000;" xml:space="preserve">
<style type="text/css">
	
		.st0{clip-path:url(#SVGID_00000085210772292001646050000001537359738609356219_);fill:none;stroke:#000000;stroke-width:30;stroke-miterlimit:10;}
	
		.st1{clip-path:url(#SVGID_00000118356323461240562760000012482842190000957312_);fill:none;stroke:#007EFF;stroke-width:30;stroke-miterlimit:10;}
	.st2{fill:none;stroke:#007EFF;stroke-width:30;stroke-miterlimit:10;}
</style>
<g>
	<g>
		<g>
			<g>
				<defs>
					<path id="SVGID_1_" d="M920.4,255.6c-3.71-40.04-16.73-115.86-70.8-188.4C827.81,37.97,804.42,16.06,784,0
						C589.61,0.04,395.21,0.09,200.82,0.13c-22.58,12.85-45.17,25.69-67.75,38.54C115.91,56.98,98.76,75.29,81.6,93.6
						c0,68,0,136,0,204C142.4,472,203.2,646.4,264,820.8c32.36,59.73,64.71,119.47,97.07,179.2c79.64,0,159.29,0,238.93,0
						c13.22-6.88,87.22-46.97,106.8-131.2c7.99-34.36,4.17-64.24-0.2-83.5c-44.99-13.01-73.57-34.21-91-50.9
						c-80.08-76.68-92.55-218.87-34.76-359.73c1.96-6.81,36.9-120.88,152.08-153.11C831.46,193.99,910.19,248.3,920.4,255.6z"/>
				</defs>
				<clipPath id="SVGID_00000170274276439802378200000016528957689978166463_">
					<use xlink:href="#SVGID_1_"  style="overflow:visible;"/>
				</clipPath>
				
					<path style="clip-path:url(#SVGID_00000170274276439802378200000016528957689978166463_);fill:none;stroke:#000000;stroke-width:30;stroke-miterlimit:10;" d="
					M870.21,202.02c-1.14-24.02-3.04-64.22-29.8-104.81c-22.54-34.18-51.43-51.01-57.55-54.46C704.08-1.81,609.38,29.3,590.7,35.55
					c-51.08,17.1-56.58,35.17-95.16,35.98c-40.36,0.85-48.4-18.64-102.25-35.97c-21.66-6.96-114.98-36.48-192.16,7.19
					c-6.15,3.48-35.03,20.3-57.55,54.46c-26.76,40.59-28.66,80.79-29.8,104.81c-0.55,11.55-1.62,51.41,15.41,98.65
					c6.99,19.37,17.67,37.24,39.05,72.96c20.92,34.98,40.64,64.56,58.57,91.46c18.1,27.15,32.04,47.23,48.3,79.12
					c7.53,14.75,12.05,23.72,16.44,36.99c10.97,33.14,10.51,60.5,10.28,80.15c-1.03,87.22-1.54,130.83,9.25,169.55
					c8.36,30.04,19.86,52.69,26.72,65.77c17.98,34.27,33.45,50.61,38.77,56.02c15.14,15.38,28.91,29.35,43.44,26.19
					c16.61-3.61,23.98-27.4,25.69-32.88c7.26-23.38,1.14-44.44-1.03-52.41c-25.05-91.74,0.67-171.18,9.25-187.02
					c3.79-6.99,11.66-22.83,27.75-27.75c1.9-0.58,10.64-3.07,20.67-0.01c16.07,4.89,23.98,20.73,27.75,27.75
					c8.91,16.61,34.14,95.84,9.25,187.02c-2.17,7.96-8.29,29.03-1.03,52.41c1.71,5.48,9.08,29.27,25.69,32.88
					c14.53,3.16,28.28-10.82,43.44-26.19c9.22-9.36,22.71-25.01,38.77-56.02c6.8-13.11,18.36-35.72,26.72-65.77
					c10.79-38.73,10.28-82.34,9.25-169.55c-0.23-19.65-0.69-47.01,10.28-80.15c4.39-13.27,8.91-22.25,16.44-36.99
					c16.26-31.89,30.2-51.97,48.3-79.12c17.93-26.9,37.65-56.48,58.57-91.46c21.37-35.72,32.06-53.59,39.05-72.96
					C871.82,253.43,870.76,213.57,870.21,202.02z"/>
			</g>
		</g>
	</g>
</g>
<g id="Слой_2">
	<defs>
		<path id="SVGID_00000165913683924533260030000011418218525892183193_" d="M715.2,552.8l75.86,69.96l17.74,28.44l-152,66.4
			l-133.6-82.4c0,0-89.6-168-88.8-165.6C435.2,472,412,312,412,312l109.6-65.6l125.6-11.2l146.4,16l126.8,23.2v104v147.2l-51.6-15.2
			L791.2,444L715.2,552.8z"/>
	</defs>
	<clipPath id="SVGID_00000118360606431093054050000016144665326726611598_">
		<use xlink:href="#SVGID_00000165913683924533260030000011418218525892183193_"  style="overflow:visible;"/>
	</clipPath>
	
		<path style="clip-path:url(#SVGID_00000118360606431093054050000016144665326726611598_);fill:none;stroke:#007EFF;stroke-width:30;stroke-miterlimit:10;" d="
		M841.66,313.5c-5.19-3.44-21.86-13.76-46.45-16.15c-59.49-5.78-101.64,41.04-107.5,47.76c-5.51-6.53-43.61-50.21-100.7-47.17
		c-27.73,1.48-46.56,13.27-51.38,16.44c-39.45,26-54.49,77.33-45.9,117.15c5.99,27.77,23.37,44.76,33.56,57.55
		C640.8,636.53,654.17,662.81,688.22,662.85c34.77,0.04,49.11-29.52,165.79-174.66c10.16-12.63,27.57-29.71,33.56-57.55
		C896.2,390.55,880.74,339.36,841.66,313.5z"/>
</g>
<path class="st2" d="M221.72,200.13c1.45-6.22,10.61-42.79,47.09-63.89c39.9-23.1,79.92-8.84,85.28-6.82"/>
</svg>
